<?xml version="1.0"?>
<svg xmlns="http://www.w3.org/2000/svg" xmlns:xlink="http://www.w3.org/1999/xlink" xmlns:svgjs="http://svgjs.com/svgjs" version="1.1" width="512" height="512" x="0" y="0" viewBox="0 0 496.143 496.143" style="enable-background:new 0 0 512 512" xml:space="preserve" class=""><g>
<path xmlns="http://www.w3.org/2000/svg" id="XMLID_27_" d="M432.017,300.272c-0.787-2.344-3.069-3.859-5.527-3.697c-2.475,0.171-4.52,1.974-4.986,4.398l-12.707,65.115  L290.765,248.058l118.049-118.031l12.67,65.118c0.468,2.422,2.531,4.227,4.989,4.396c2.475,0.162,4.737-1.354,5.528-3.695  L495.852,7.204c0.663-1.964,0.159-4.136-1.31-5.606c-1.473-1.463-3.644-1.976-5.6-1.311L300.277,64.148  c-2.35,0.788-3.859,3.06-3.698,5.528c0.163,2.466,1.975,4.513,4.397,4.987l65.107,12.67L248.073,205.356L130.06,87.334l65.107-12.67  c2.423-0.474,4.234-2.521,4.396-4.987c0.162-2.468-1.346-4.74-3.697-5.528L7.2,0.287C5.244-0.378,3.073,0.135,1.602,1.598  C0.13,3.068-0.373,5.24,0.292,7.204l63.852,188.641c0.787,2.341,3.051,3.858,5.527,3.695c2.457-0.168,4.521-1.974,4.988-4.396  l12.67-65.118l118.049,118.031L87.348,366.087l-12.706-65.115c-0.467-2.424-2.514-4.227-4.99-4.398  c-2.457-0.162-4.736,1.354-5.526,3.697L0.292,488.947c-0.665,1.955-0.162,4.137,1.309,5.6c1.471,1.463,3.642,1.974,5.598,1.31  l188.667-63.861c2.333-0.79,3.859-3.06,3.679-5.527c-0.161-2.468-1.955-4.514-4.395-4.989l-65.108-12.688L248.073,290.76  l118.028,118.031l-65.107,12.688c-2.44,0.476-4.234,2.522-4.397,4.989c-0.18,2.468,1.347,4.737,3.68,5.527l188.666,63.861  c1.956,0.663,4.127,0.152,5.6-1.31c1.469-1.463,1.973-3.645,1.31-5.6L432.017,300.272z" fill="#ffffff" data-original="#000000" style="" class=""/>
<g xmlns="http://www.w3.org/2000/svg">
</g>
<g xmlns="http://www.w3.org/2000/svg">
</g>
<g xmlns="http://www.w3.org/2000/svg">
</g>
<g xmlns="http://www.w3.org/2000/svg">
</g>
<g xmlns="http://www.w3.org/2000/svg">
</g>
<g xmlns="http://www.w3.org/2000/svg">
</g>
<g xmlns="http://www.w3.org/2000/svg">
</g>
<g xmlns="http://www.w3.org/2000/svg">
</g>
<g xmlns="http://www.w3.org/2000/svg">
</g>
<g xmlns="http://www.w3.org/2000/svg">
</g>
<g xmlns="http://www.w3.org/2000/svg">
</g>
<g xmlns="http://www.w3.org/2000/svg">
</g>
<g xmlns="http://www.w3.org/2000/svg">
</g>
<g xmlns="http://www.w3.org/2000/svg">
</g>
<g xmlns="http://www.w3.org/2000/svg">
</g>
</g></svg>
