<?xml version="1.0"?>
<svg xmlns="http://www.w3.org/2000/svg" xmlns:xlink="http://www.w3.org/1999/xlink" xmlns:svgjs="http://svgjs.com/svgjs" version="1.1" width="512" height="512" x="0" y="0" viewBox="0 0 512.165 512.165" style="enable-background:new 0 0 512 512" xml:space="preserve"><g><path xmlns="http://www.w3.org/2000/svg" d="m437.476 320.656c-.004-.05-.007-.101-.011-.15-1.541-21.368-5.481-39.513-12.39-57.037-.093-.265-.193-.528-.302-.79-.395-.951-39.225-95.684-21.044-147.746 1.641-4.697.845-9.901-2.123-13.894s-7.716-6.249-12.691-6.037c-1.333.058-28.492 1.565-57.3 26.911-25.213-52.021-29.194-107.287-29.235-107.89-.341-5.227-3.383-9.896-8.026-12.32-4.644-2.425-10.213-2.249-14.697.457-39.788 24.034-70.525 53.365-91.356 87.18-16.82 27.302-27.192 57.459-30.829 89.634-3.004 26.576-.896 50.03 2.135 67.303l-53.65-21.948c-3.943-1.613-8.386-1.476-12.222.385-3.834 1.858-6.697 5.26-7.874 9.354-3.504 12.189-6.128 23.455-8.023 34.441-6.596 38.261-3.897 77.447 7.802 113.325 11.762 36.068 32.059 67.129 58.697 89.824 27.882 23.756 60.976 37.173 97.059 39.933 3.344.369 6.734.574 10.174.574.717 0 1.441-.032 2.161-.049.594.006 1.186.018 1.781.018 22.939 0 46.93-4.158 71.431-12.557 38.865-13.321 69.645-39.707 89.011-76.303 16.096-30.418 23.74-66.862 21.522-102.618zm-114.838 88.999c-.173 21.205-14.575 57.43-44.942 67.839-8.188 2.807-16.068 4.338-23.558 4.62-3.535-.035-7.039-.188-10.511-.461-10.902-1.417-20.783-5.781-29.327-13.06-17.868-15.224-27.085-41.435-24.276-68.02 13.375 5.076 31.52 7.476 53.224 1.523 34.909-9.572 48.139-47.177 53.09-77.038.326-1.969.622-3.927.89-5.868 22.296 42.656 25.573 70.291 25.41 90.465zm66.798-.412c-12.386 23.406-29.802 41.2-51.924 53.117 9.488-16.56 14.988-35.547 15.125-52.462.366-45.312-16.89-91.517-55.95-149.817-3.792-5.657-10.918-8.056-17.356-5.829-6.438 2.223-10.57 8.503-10.063 15.295 1.789 23.976-.608 94.475-33.954 103.618-28.387 7.787-43.529-5.362-45-6.726-3.681-4.013-9.084-5.533-14.39-4.261-5.342 1.285-9.38 5.573-10.805 10.879-.283 1.053-2.793 10.461-3.851 16.59-3.713 21.542-1.527 42.97 5.71 61.803-1.07-.861-2.135-1.732-3.187-2.628-22.424-19.104-39.586-45.484-49.631-76.289-10.191-31.253-12.528-65.462-6.76-98.927.847-4.905 1.859-9.89 3.055-15.024l65.249 26.692c5.517 2.257 11.838 1.018 16.115-3.132 4.278-4.148 5.688-10.454 3.603-16.036-.138-.368-13.69-37.366-7.994-85.015 3.294-27.559 12.326-53.367 26.845-76.711 14.752-23.718 35.301-45.053 61.256-63.631 4.49 27.353 15.155 72.884 39.7 113.945 2.493 4.171 6.853 6.876 11.697 7.258 4.837.373 9.573-1.607 12.688-5.337 10.645-12.74 21.36-20.365 30.191-24.923-5.805 59.4 23.62 133.576 27.008 141.872.05.135.101.27.154.403 5.876 14.749 9.235 30.2 10.57 48.621 1.866 30.297-4.562 61.07-18.101 86.655z" fill="#ffffff" data-original="#000000" style=""/></g></svg>
