<?xml version="1.0"?>
<svg xmlns="http://www.w3.org/2000/svg" xmlns:xlink="http://www.w3.org/1999/xlink" xmlns:svgjs="http://svgjs.com/svgjs" version="1.1" width="512" height="512" x="0" y="0" viewBox="0 0 512 512" style="enable-background:new 0 0 512 512" xml:space="preserve" class=""><g><g xmlns="http://www.w3.org/2000/svg"><circle cx="256" cy="165" r="75" fill="#ffffff" data-original="#000000" style="" class=""/><path d="m256 0c-81.108 0-165 61.714-165 165 0 94.351 147.217 274.08 153.472 281.609 2.856 3.413 7.075 5.391 11.528 5.391s8.672-1.978 11.528-5.391c6.255-7.529 153.472-187.258 153.472-281.609 0-90.981-74.019-165-165-165zm0 270c-57.891 0-105-47.109-105-105s47.109-105 105-105 105 47.109 105 105-47.109 105-105 105z" fill="#ffffff" data-original="#000000" style="" class=""/><path d="m357.087 377.811c-28.922 41.873-55.961 75.306-66.487 87.973-8.643 10.327-21.241 16.216-34.6 16.216s-25.957-5.889-34.541-16.143c-10.551-12.698-37.608-46.155-66.544-88.046-38.83 13.722-63.915 35.1-63.915 59.189 0 41.42 73.874 75 165 75s165-33.58 165-75c0-24.088-25.084-45.467-63.913-59.189z" fill="#ffffff" data-original="#000000" style="" class=""/></g></g></svg>
