<?xml version="1.0"?>
<svg xmlns="http://www.w3.org/2000/svg" xmlns:xlink="http://www.w3.org/1999/xlink" xmlns:svgjs="http://svgjs.com/svgjs" version="1.1" width="512" height="512" x="0" y="0" viewBox="0 0 510 510" style="enable-background:new 0 0 512 512" xml:space="preserve" class=""><g><g xmlns="http://www.w3.org/2000/svg"><path d="m75 260v-30h-75v150h75v-30h-45v-30h30v-30h-30v-30z" fill="#ffffff" data-original="#000000" style="" class=""/><path d="m510 260v-30h-75v150h30v-60h30v-30h-30v-30z" fill="#ffffff" data-original="#000000" style="" class=""/><path d="m176.59 28.348h30v40.001h-30z" transform="matrix(.966 -.259 .259 .966 -5.985 51.233)" fill="#ffffff" data-original="#000000" style="" class=""/><path d="m117.5 52.823h30v40.001h-30z" transform="matrix(.866 -.5 .5 .866 -18.66 76.005)" fill="#ffffff" data-original="#000000" style="" class=""/><path d="m66.759 91.759h30v40h-30z" transform="matrix(.707 -.707 .707 .707 -55.079 90.546)" fill="#ffffff" data-original="#000000" style="" class=""/><path d="m298.41 33.348h40.001v30h-40.001z" transform="matrix(.259 -.966 .966 .259 189.31 343.4)" fill="#ffffff" data-original="#000000" style="" class=""/><path d="m357.5 57.824h40.001v30h-40.001z" transform="matrix(.5 -.866 .866 .5 125.681 363.335)" fill="#ffffff" data-original="#000000" style="" class=""/><path d="m408.241 96.759h40v30h-40z" transform="matrix(.707 -.707 .707 .707 46.403 335.545)" fill="#ffffff" data-original="#000000" style="" class=""/><path d="m447.176 147.5h40.001v30h-40.001z" transform="matrix(.866 -.5 .5 .866 -18.66 255.361)" fill="#ffffff" data-original="#000000" style="" class=""/><path d="m268.935 510h-27.869c-35.778 0-70.678-6.942-103.732-20.634s-62.642-33.461-87.94-58.76l21.213-21.213c45.531 45.532 106.068 70.607 170.459 70.607h27.869c64.391 0 124.928-25.075 170.459-70.606l21.213 21.213c-25.298 25.299-54.886 45.068-87.94 58.76-33.055 13.691-67.955 20.633-103.732 20.633z" fill="#ffffff" data-original="#000000" style="" class=""/><path d="m262.823 210.409c-24.965-2.624-48.38 7.396-63.907 24.863l-161.412-93.26-15.008 25.977 161.382 93.243c3.254-9.741 8.429-18.523 15.039-25.959l63.587 36.74-15.008 25.977-63.618-36.757c-1.696 5.078-2.888 10.406-3.469 15.946-4.314 41.129 25.638 78.1 66.768 82.414 2.648.278 5.272.413 7.878.413 37.87 0 70.5-28.7 74.536-67.181 4.313-41.131-25.639-78.101-66.768-82.416z" fill="#ffffff" data-original="#000000" style="" class=""/><path d="m240 0h30v60h-30z" fill="#ffffff" data-original="#000000" style="" class=""/></g></g></svg>
