<?xml version="1.0"?>
<svg xmlns="http://www.w3.org/2000/svg" xmlns:xlink="http://www.w3.org/1999/xlink" xmlns:svgjs="http://svgjs.com/svgjs" version="1.1" width="512" height="512" x="0" y="0" viewBox="0 0 24 24" style="enable-background:new 0 0 512 512" xml:space="preserve" class=""><g><path xmlns="http://www.w3.org/2000/svg" d="m19.93 20.99c-2.12 1.88-4.89 3.01-7.93 3.01-6.62 0-12-5.38-12-12 0-6.37 4.98-11.59 11.25-11.97v5.02c-3.51.37-6.25 3.35-6.25 6.95 0 3.86 3.14 7 7 7 1.66 0 3.19-.58 4.39-1.55z" fill="#ffffff" data-original="#000000" style="" class=""/><path xmlns="http://www.w3.org/2000/svg" d="m23.97 12.75c-.16 2.74-1.25 5.24-2.98 7.18l-3.54-3.54c.82-1.01 1.36-2.27 1.5-3.64z" fill="#ffffff" data-original="#000000" style="" class=""/><path xmlns="http://www.w3.org/2000/svg" d="m23.97 11.25h-5.02c-.34-3.26-2.94-5.86-6.2-6.2v-5.02c6.02.36 10.86 5.2 11.22 11.22z" fill="#ffffff" data-original="#000000" style="" class=""/></g></svg>
