<?xml version="1.0"?>
<svg xmlns="http://www.w3.org/2000/svg" xmlns:xlink="http://www.w3.org/1999/xlink" xmlns:svgjs="http://svgjs.com/svgjs" version="1.1" width="512" height="512" x="0" y="0" viewBox="0 0 611.999 611.999" style="enable-background:new 0 0 512 512" xml:space="preserve" class=""><g>
<g xmlns="http://www.w3.org/2000/svg">
	<path d="M523.754,457.894c-5.707-77.834-42.706-127.253-72.737-155.004c-3.46-3.196-6.899-6.171-10.29-8.96   c-0.011-111.88-35.667-185.493-65.58-227.546c-32.606-45.84-64.953-64.841-66.315-65.626c-1.754-1.012-3.913-1.012-5.667,0   c-1.36,0.785-33.707,19.788-66.313,65.626c-29.913,42.053-65.569,115.665-65.58,227.546c-3.391,2.788-6.83,5.763-10.291,8.96   c-30.031,27.752-67.03,77.172-72.737,155.005c-0.187,2.539,0.693,5.044,2.427,6.908c1.734,1.866,4.165,2.925,6.712,2.925h115.116   c6.555,12.5,13.36,22.572,19.984,29.285c1.064,1.078,2.516,1.684,4.03,1.684h2.81c4.234,60.24,52.282,106.404,54.421,108.424   c3.438,3.252,7.846,4.877,12.254,4.877s8.816-1.625,12.254-4.877c2.139-2.022,50.185-48.184,54.421-108.424h2.812   c1.514,0,2.966-0.606,4.03-1.684c6.625-6.712,13.43-16.784,19.984-29.285h115.116c2.547,0,4.978-1.061,6.712-2.925   C523.061,462.938,523.941,460.435,523.754,457.894z M306,156.817c27.763,0,50.27,22.506,50.27,50.27s-22.506,50.27-50.27,50.27   c-27.763,0-50.27-22.508-50.27-50.27C255.73,179.324,278.236,156.817,306,156.817z M306.001,567.334   c-11.757-14.855-28.103-40.151-30.914-68.636h61.826C334.101,527.186,317.75,552.485,306.001,567.334z" fill="#ffffff" data-original="#000000" style="" class=""/>
</g>
<g xmlns="http://www.w3.org/2000/svg">
</g>
<g xmlns="http://www.w3.org/2000/svg">
</g>
<g xmlns="http://www.w3.org/2000/svg">
</g>
<g xmlns="http://www.w3.org/2000/svg">
</g>
<g xmlns="http://www.w3.org/2000/svg">
</g>
<g xmlns="http://www.w3.org/2000/svg">
</g>
<g xmlns="http://www.w3.org/2000/svg">
</g>
<g xmlns="http://www.w3.org/2000/svg">
</g>
<g xmlns="http://www.w3.org/2000/svg">
</g>
<g xmlns="http://www.w3.org/2000/svg">
</g>
<g xmlns="http://www.w3.org/2000/svg">
</g>
<g xmlns="http://www.w3.org/2000/svg">
</g>
<g xmlns="http://www.w3.org/2000/svg">
</g>
<g xmlns="http://www.w3.org/2000/svg">
</g>
<g xmlns="http://www.w3.org/2000/svg">
</g>
</g></svg>
